<svg width="33" height="33" viewBox="0 0 33 33" fill="none" xmlns="http://www.w3.org/2000/svg">
<path d="M31.1378 19.1096C29.6813 22.093 26.9705 24.0965 24.2187 24.2079C21.588 24.3192 19.9702 23.3277 19.0794 22.4681C17.6131 21.0721 16.8844 18.9876 16.8844 16.2865C16.8844 14.3044 15.2657 12.6858 13.2729 12.6858C11.0681 12.6858 9.31758 14.6786 9.72202 16.944C9.97502 18.3604 11.0877 19.514 12.4943 19.8169C12.9388 19.9087 13.3843 19.9283 13.8092 19.8579C14.831 19.7056 15.8225 20.3024 16.2572 21.2334C16.267 21.2538 16.267 21.2636 16.2777 21.2743C16.9859 22.7611 16.0648 24.5312 14.4363 24.754C13.435 24.8858 12.3928 24.8448 11.3612 24.6221C7.91184 23.8533 5.2607 20.9305 4.80548 17.4197C4.11775 12.21 8.17464 7.74872 13.2631 7.74872C17.9667 7.74872 21.8009 11.5829 21.8009 16.2865C21.8009 17.5408 22.0432 18.4922 22.4788 18.9065C22.7719 19.18 23.2779 19.3118 24.0057 19.2815C24.6436 19.2504 25.7358 18.9475 26.9197 17.0758C28.2853 14.9209 28.9526 7.09128 21.9933 2.59967C18.7052 0.47502 14.5682 -0.0202861 10.8757 1.2741C4.2496 3.61167 -0.424636 10.1059 0.0305827 17.6326C0.516981 25.7152 7.03169 32.3003 15.1143 32.857C24.6231 33.5145 32.5337 25.9985 32.5337 16.6304C32.5337 16.054 32.5035 15.4874 32.4429 14.9316C32.1694 16.8326 31.5529 18.249 31.1378 19.1096Z" fill="#53F85F"/>
</svg>
